<svg xmlns="http://www.w3.org/2000/svg" version="1.1" x="0" y="0" width="320" height="320" viewBox="0 0 320 320" enable-background="new 0 0 320 320" xml:space="preserve">
  <rect width="320" height="320" fill="none"/>
  <polygon fill="#FFFFFF" points="134.6 207.1 250.9 207.3 248.2 108.9 204.5 172.4 200.8 172.1 200.8 108.3 139.6 203.7 "/>
  <polygon fill="#FFFFFF" points="93.3 200.4 106 200.4 106 112.7 93 112.7 93 106.2 128.7 106.2 128.7 112.7 117.9 112.7 117.9 200.4 128.4 200.4 128.4 207 93.3 207 "/>
  <rect x="108.7" y="105.1" width="2.1" height="102.8"/>
  <polygon fill="#FFFFFF" points="263.2 106.2 315.8 106.2 315.8 112.7 274.1 112.7 274.1 146.2 315.6 146.2 315.6 153.5 274.1 153.5 274.1 207 263.2 207 "/>
  <rect x="265.6" y="106.1" width="2.8" height="101"/>
  <rect x="269.8" y="153.5" fill="#FFFFFF" width="2.2" height="50.4"/>
  <path fill="#FFFFFF" d="M61.3 149.9c13 6.5 20.5-4.2 22.5-13.3 2-9.1-2.6-31.3-28.9-31.8 -26.3-0.5-35.9 20.8-33.5 39.4 2.9 22.4 14.8 36.1 22.4 42.7 9.8 8.4 23.7 16.5 33 19.2 0.9 0.3 7 0.4 1.9-3.1 0 0-20.1-11.1-30.4-24.4 -6.7-8.6-14.3-19.8-12.4-41.3 2-23.5 29.6-34.9 35.9-18.3 0 0-0.1 4-10.3 7.2 -7.8 2.4-9.4 16.8-2.9 21.9C59.9 148.8 60.6 149.5 61.3 149.9z"/>
  <circle fill="#FFFFFF" cx="7.9" cy="126" r="5.3"/>
  <circle fill="#FFFFFF" cx="7.9" cy="148" r="5.3"/>
  <polygon fill="#FFFFFF" points="205.4 167.4 244.2 106.2 250.9 106.2 250.9 207.2 244.2 207.2 244.2 116.2 205.6 177.2 205.6 207 199.1 207 199.1 187.1 186.5 207 180.2 207 198.9 177.2 198.9 123 145.1 207 134.6 207 198.7 106.2 205.2 106.2 205.2 117.5 "/>
  <polygon points="142 208.2 144.1 208.2 198.9 120 198.9 115.8 "/>
  <rect x="18.1" y="119.2" width="6.9" height="43.1"/>
  <rect x="76.4" y="107.1" width="2.4" height="50.3"/>
  <rect x="4.8" y="118.1" width="1.4" height="39.9"/>
  <text transform="matrix(1 0 0 1 209.5039 169.7539)" fill="#515151" font-family="'Thonburi'" font-size="6.8">
    CLEVELAND
  </text>
  <text transform="matrix(1 0 0 1 195.8291 181.3418)" fill="#515151" font-family="'Thonburi'" font-size="6.8">
    INTERNATIONAL
  </text>
  <text transform="matrix(1 0 0 1 229.084 192.9268)" fill="#EABF0A" font-family="'Thonburi'" font-size="6.8">
    MUSIC
  </text>
  <text transform="matrix(1 0 0 1 217.5225 204.5127)" fill="#515151" font-family="'Thonburi'" font-size="6.8">
    FESTIVAL
  </text>
</svg>
